# xmcd
#
# Track frame offsets: 
#        150
#        15217
#        30590
#        42847
#        44131
#        67909
#        85443
#        106113
#        120436
#        133045
#        149120
#        164930
#        181244
#        197159
#
# Disc length: 2808 seconds
#
# Revision: 0
# Processed by: cddbd v1.4PL0 Copyright (c) Steve Scherf et al.
# Submitted via: ExactAudioCopy v0.90a11
#
DISCID=c50af60e
DTITLE=Mak Wolven - American Landscape
DYEAR=1900
DGENRE=
TTITLE0=Back to Texas
TTITLE1=Farmer Knows Best
TTITLE2=Love By The Numbers
TTITLE3=Desert Wind
TTITLE4=Abilene
TTITLE5=Cheap Hotel
TTITLE6=One Good Reason
TTITLE7=Northern Town
TTITLE8=She's Got A Habit
TTITLE9=You've Been Alone
TTITLE10=Tell Me Where It Hurts
TTITLE11=Me and You
TTITLE12=Driven
TTITLE13=The Night Will Fa,,
EXTD=
EXTT0=
EXTT1=
EXTT2=
EXTT3=
EXTT4=
EXTT5=
EXTT6=
EXTT7=
EXTT8=
EXTT9=
EXTT10=
EXTT11=
EXTT12=
EXTT13=
PLAYORDER=
